<?xml version="1.0" encoding="utf-8"?>
<!-- Generator: Adobe Illustrator 27.4.1, SVG Export Plug-In . SVG Version: 6.00 Build 0)  -->
<svg version="1.1" id="Layer_1" xmlns="http://www.w3.org/2000/svg" xmlns:xlink="http://www.w3.org/1999/xlink" x="0px" y="0px"
	 viewBox="0 0 120 44" style="enable-background:new 0 0 120 44;" xml:space="preserve">
<style type="text/css">
	.st0{fill:#A6A6A6;}
	.st1{fill:#FFFFFF;}
</style>
<path class="st0" d="M110.1,0H9.5C9.2,0,8.8,0,8.4,0C8.1,0,7.8,0,7.5,0c-0.7,0-1.3,0.1-2,0.2C4.9,0.3,4.2,0.6,3.6,0.9
	C3,1.2,2.5,1.7,2,2.2C1.5,2.7,1.1,3.3,0.8,4C0.5,4.6,0.3,5.3,0.2,6.1C0.1,6.8,0,7.5,0,8.3c0,0.3,0,0.7,0,1v25.4c0,0.3,0,0.7,0,1
	c0,0.7,0.1,1.5,0.2,2.2c0.1,0.7,0.3,1.4,0.6,2.1c0.3,0.7,0.7,1.3,1.2,1.8c0.5,0.5,1,1,1.6,1.3c0.6,0.3,1.2,0.6,1.9,0.7
	c0.7,0.1,1.3,0.2,2,0.2c0.3,0,0.6,0,0.9,0c0.4,0,0.7,0,1.1,0h100.6c0.4,0,0.7,0,1.1,0c0.3,0,0.6,0,0.9,0c0.7,0,1.3-0.1,2-0.2
	c0.7-0.1,1.3-0.4,1.9-0.7c0.6-0.3,1.1-0.8,1.6-1.3c0.5-0.5,0.9-1.1,1.2-1.8c0.3-0.7,0.5-1.4,0.6-2.1c0.1-0.7,0.2-1.5,0.2-2.2
	c0-0.3,0-0.7,0-1c0-0.4,0-0.8,0-1.2v-23c0-0.4,0-0.8,0-1.2c0-0.3,0-0.7,0-1c0-0.7-0.1-1.5-0.2-2.2c-0.1-0.7-0.3-1.4-0.6-2.1
	c-0.6-1.3-1.6-2.4-2.8-3.1c-0.6-0.3-1.2-0.6-1.9-0.7c-0.7-0.1-1.3-0.2-2-0.2c-0.3,0-0.6,0-0.9,0C110.9,0,110.5,0,110.1,0z"/>
<path d="M8.4,43c-0.3,0-0.6,0-0.9,0c-0.6,0-1.3-0.1-1.9-0.2c-0.6-0.1-1.1-0.3-1.7-0.6c-0.5-0.3-1-0.7-1.4-1.1c-0.4-0.4-0.8-1-1-1.5
	c-0.3-0.6-0.4-1.2-0.5-1.8c-0.1-0.7-0.2-1.4-0.2-2.1c0-0.2,0-1,0-1V9.3c0,0,0-0.8,0-1c0-0.7,0.1-1.4,0.2-2.1C1.1,5.6,1.3,5,1.6,4.4
	c0.3-0.6,0.6-1.1,1-1.5C3,2.4,3.5,2,4,1.8c0.5-0.3,1.1-0.5,1.7-0.6C6.3,1,6.9,1,7.5,1l0.9,0h102.8l0.9,0c0.6,0,1.2,0.1,1.9,0.2
	c0.6,0.1,1.1,0.3,1.7,0.6c1,0.6,1.9,1.5,2.4,2.7c0.3,0.6,0.4,1.2,0.5,1.8c0.1,0.7,0.2,1.4,0.2,2.1c0,0.3,0,0.6,0,1
	c0,0.4,0,0.8,0,1.2v23c0,0.4,0,0.8,0,1.2c0,0.4,0,0.7,0,1c0,0.7-0.1,1.4-0.2,2c-0.1,0.6-0.3,1.3-0.5,1.8c-0.3,0.6-0.6,1.1-1,1.5
	c-0.4,0.5-0.9,0.8-1.4,1.1c-0.5,0.3-1.1,0.5-1.7,0.6c-0.6,0.1-1.2,0.2-1.9,0.2c-0.3,0-0.6,0-0.9,0l-1.1,0L8.4,43z"/>
<path class="st1" d="M24.8,22.3c0-0.9,0.2-1.8,0.6-2.6c0.4-0.8,1-1.5,1.7-2c-0.5-0.7-1-1.3-1.7-1.7c-0.7-0.4-1.5-0.6-2.3-0.7
	c-1.7-0.2-3.3,1.1-4.2,1.1c-0.9,0-2.2-1.1-3.6-1.1c-0.9,0-1.8,0.3-2.6,0.9c-0.8,0.5-1.4,1.3-1.9,2.1c-1.9,3.7-0.5,9.1,1.4,12.1
	c0.9,1.5,2,3.1,3.4,3c1.4-0.1,1.9-1,3.6-1c1.7,0,2.1,1,3.6,0.9c1.5,0,2.4-1.5,3.3-2.9c0.7-1,1.2-2.2,1.5-3.4
	c-0.9-0.4-1.6-1.1-2.1-1.9S24.8,23.4,24.8,22.3z"/>
<path class="st1" d="M22,13.4c0.8-1.1,1.2-2.4,1.1-3.8c-1.2,0.1-2.4,0.8-3.2,1.8c-0.4,0.5-0.7,1.1-0.9,1.7c-0.2,0.6-0.3,1.3-0.2,2
	c0.6,0,1.2-0.1,1.8-0.4C21.2,14.4,21.6,14,22,13.4z"/>
<path class="st1" d="M42.3,29.9h-4.7l-1.1,3.7h-2l4.5-13.7H41l4.5,13.7h-2L42.3,29.9z M38.1,28.1h3.8l-1.8-6h-0.1L38.1,28.1z"/>
<path class="st1" d="M55.2,28.6c0,3.1-1.5,5.1-3.8,5.1c-0.6,0-1.1-0.1-1.7-0.4c-0.5-0.3-0.9-0.8-1.2-1.3h0v4.9h-1.9V23.6h1.8v1.7h0
	c0.3-0.6,0.7-1,1.2-1.3c0.5-0.3,1.1-0.5,1.7-0.4C53.6,23.5,55.2,25.5,55.2,28.6z M53.2,28.6c0-2-0.9-3.3-2.4-3.3
	c-1.4,0-2.4,1.4-2.4,3.3c0,2,1,3.4,2.4,3.4C52.3,31.9,53.2,30.6,53.2,28.6z"/>
<path class="st1" d="M65.1,28.6c0,3.1-1.5,5.1-3.8,5.1c-0.6,0-1.1-0.1-1.7-0.4c-0.5-0.3-0.9-0.8-1.2-1.3h0v4.9h-1.9V23.6h1.8v1.7h0
	c0.3-0.6,0.7-1,1.2-1.3c0.5-0.3,1.1-0.5,1.7-0.4C63.6,23.5,65.1,25.5,65.1,28.6z M63.2,28.6c0-2-0.9-3.3-2.4-3.3
	c-1.4,0-2.4,1.4-2.4,3.3c0,2,1,3.4,2.4,3.4C62.3,31.9,63.2,30.6,63.2,28.6z"/>
<path class="st1" d="M71.7,29.7c0.1,1.4,1.3,2.2,3,2.2c1.6,0,2.7-0.9,2.7-2.1c0-1.1-0.7-1.7-2.3-2.1l-1.6-0.4
	c-2.3-0.6-3.3-1.8-3.3-3.7c0-2.4,1.9-4,4.5-4c2.6,0,4.4,1.6,4.5,4h-1.9c-0.1-1.4-1.1-2.2-2.6-2.2s-2.5,0.8-2.5,2c0,1,0.7,1.5,2.3,2
	l1.4,0.4c2.5,0.7,3.6,1.8,3.6,3.8c0,2.6-1.9,4.2-4.8,4.2c-2.8,0-4.6-1.6-4.7-4L71.7,29.7z"/>
<path class="st1" d="M83.3,21.2v2.4h1.7v1.6h-1.7v5.5c0,0.9,0.3,1.3,1.1,1.3c0.2,0,0.4,0,0.6,0v1.6c-0.3,0.1-0.7,0.1-1,0.1
	c-1.8,0-2.5-0.8-2.5-2.7v-5.7h-1.3v-1.6h1.3v-2.4H83.3z"/>
<path class="st1" d="M86.1,28.6c0-3.1,1.7-5.1,4.3-5.1c2.6,0,4.3,2,4.3,5.1c0,3.1-1.7,5.1-4.3,5.1C87.7,33.7,86.1,31.7,86.1,28.6z
	 M92.8,28.6c0-2.1-0.9-3.4-2.4-3.4c-1.5,0-2.4,1.3-2.4,3.4c0,2.2,0.9,3.4,2.4,3.4C91.9,32,92.8,30.7,92.8,28.6z"/>
<path class="st1" d="M96.2,23.6H98v1.7h0c0.1-0.5,0.4-1,0.8-1.3c0.4-0.3,0.9-0.5,1.4-0.5c0.2,0,0.4,0,0.6,0.1v1.9
	c-0.3-0.1-0.6-0.1-0.8-0.1c-0.3,0-0.5,0-0.8,0.2c-0.2,0.1-0.5,0.3-0.7,0.5c-0.2,0.2-0.3,0.5-0.4,0.8C98,27,98,27.3,98,27.6v5.9h-1.9
	V23.6z"/>
<path class="st1" d="M109.4,30.6c-0.2,1.8-1.9,3-3.9,3c-2.6,0-4.3-1.9-4.3-5.1c0-3.1,1.6-5.1,4.2-5.1c2.5,0,4.1,1.9,4.1,4.9v0.7
	h-6.4v0.1c0,0.4,0,0.7,0.1,1.1c0.1,0.3,0.3,0.7,0.5,0.9c0.2,0.3,0.5,0.5,0.8,0.6c0.3,0.1,0.6,0.2,1,0.2c0.4,0,0.9-0.1,1.3-0.3
	c0.4-0.3,0.7-0.6,0.8-1.1H109.4z M103.1,27.6h4.5c0-0.3,0-0.7-0.1-1c-0.1-0.3-0.3-0.6-0.5-0.8c-0.2-0.2-0.5-0.4-0.7-0.6
	c-0.3-0.1-0.6-0.2-0.9-0.2c-0.3,0-0.6,0.1-0.9,0.2c-0.3,0.1-0.5,0.3-0.7,0.5c-0.2,0.2-0.4,0.5-0.5,0.8
	C103.2,27,103.1,27.3,103.1,27.6z"/>
<path class="st1" d="M37.8,9.6c0.4,0,0.8,0,1.1,0.2c0.4,0.2,0.7,0.4,1,0.7c0.3,0.3,0.5,0.7,0.6,1.1c0.1,0.4,0.2,0.8,0.1,1.3
	c0,2.1-1,3.3-2.8,3.3h-2.2V9.6H37.8z M36.6,15.2h1.1c0.3,0,0.6,0,0.8-0.1c0.3-0.1,0.5-0.3,0.7-0.5s0.3-0.5,0.4-0.8
	c0.1-0.3,0.1-0.6,0.1-0.9c0-0.3,0-0.6-0.1-0.9c-0.1-0.3-0.2-0.6-0.4-0.8c-0.2-0.2-0.4-0.4-0.7-0.5c-0.3-0.1-0.5-0.2-0.8-0.1h-1.1
	V15.2z"/>
<path class="st1" d="M41.7,13.7c0-0.3,0-0.7,0.1-1c0.1-0.3,0.2-0.6,0.4-0.8c0.2-0.2,0.4-0.4,0.7-0.6c0.3-0.1,0.6-0.2,0.9-0.2
	c0.3,0,0.6,0.1,0.9,0.2c0.3,0.1,0.5,0.3,0.7,0.6c0.2,0.2,0.4,0.5,0.4,0.8c0.1,0.3,0.1,0.6,0.1,1c0,0.3,0,0.7-0.1,1
	c-0.1,0.3-0.2,0.6-0.4,0.8c-0.2,0.2-0.4,0.4-0.7,0.6c-0.3,0.1-0.6,0.2-0.9,0.2c-0.3,0-0.6-0.1-0.9-0.2c-0.3-0.1-0.5-0.3-0.7-0.6
	c-0.2-0.2-0.4-0.5-0.4-0.8C41.7,14.3,41.7,14,41.7,13.7z M45,13.7c0-1.1-0.4-1.7-1.2-1.7c-0.8,0-1.2,0.6-1.2,1.7
	c0,1.1,0.4,1.7,1.2,1.7C44.6,15.4,45,14.8,45,13.7z"/>
<path class="st1" d="M51.6,16.2h-0.9l-0.9-3.6h-0.1l-0.9,3.6h-0.9l-1.2-5h0.9l0.8,3.8h0.1l0.9-3.8h0.9L51,15h0.1l0.8-3.8h0.9
	L51.6,16.2z"/>
<path class="st1" d="M53.9,11.2h0.9V12h0.1c0.1-0.3,0.3-0.5,0.5-0.7c0.2-0.2,0.5-0.2,0.8-0.2c0.2,0,0.4,0,0.6,0.1
	c0.2,0.1,0.4,0.2,0.5,0.4s0.3,0.4,0.3,0.6c0.1,0.2,0.1,0.5,0.1,0.7v3.2h-0.9v-3c0-0.8-0.3-1.2-1-1.2c-0.1,0-0.3,0-0.4,0.1
	c-0.1,0.1-0.3,0.2-0.4,0.3c-0.1,0.1-0.2,0.3-0.2,0.4c0,0.2-0.1,0.3,0,0.5v2.9h-0.9V11.2z"/>
<path class="st1" d="M59.1,9.3H60v6.9h-0.9V9.3z"/>
<path class="st1" d="M61.2,13.7c0-0.3,0-0.7,0.1-1c0.1-0.3,0.2-0.6,0.4-0.8c0.2-0.2,0.4-0.4,0.7-0.6c0.3-0.1,0.6-0.2,0.9-0.2
	s0.6,0.1,0.9,0.2c0.3,0.1,0.5,0.3,0.7,0.6c0.2,0.2,0.4,0.5,0.4,0.8c0.1,0.3,0.1,0.6,0.1,1c0,0.3,0,0.7-0.1,1
	c-0.1,0.3-0.2,0.6-0.4,0.8c-0.2,0.2-0.4,0.4-0.7,0.6c-0.3,0.1-0.6,0.2-0.9,0.2s-0.6-0.1-0.9-0.2c-0.3-0.1-0.5-0.3-0.7-0.6
	c-0.2-0.2-0.4-0.5-0.4-0.8C61.2,14.3,61.2,14,61.2,13.7z M64.6,13.7c0-1.1-0.4-1.7-1.2-1.7c-0.8,0-1.2,0.6-1.2,1.7
	c0,1.1,0.4,1.7,1.2,1.7C64.1,15.4,64.6,14.8,64.6,13.7z"/>
<path class="st1" d="M66.4,14.8c0-0.9,0.6-1.4,1.7-1.5l1.2-0.1v-0.4c0-0.5-0.3-0.8-0.9-0.8c-0.5,0-0.8,0.2-0.9,0.6h-0.9
	c0.1-0.9,0.8-1.4,1.8-1.4c1.1,0,1.8,0.6,1.8,1.7v3.4h-0.9v-0.7h-0.1c-0.1,0.2-0.3,0.5-0.6,0.6c-0.2,0.1-0.5,0.2-0.8,0.2
	c-0.2,0-0.4,0-0.6-0.1c-0.2-0.1-0.3-0.2-0.5-0.3c-0.1-0.1-0.3-0.3-0.3-0.5C66.4,15.2,66.4,15,66.4,14.8z M69.3,14.3v-0.4L68.2,14
	c-0.6,0-0.9,0.3-0.9,0.7c0,0.4,0.4,0.7,0.8,0.7c0.1,0,0.3,0,0.4,0c0.1,0,0.3-0.1,0.4-0.2c0.1-0.1,0.2-0.2,0.3-0.4
	C69.2,14.7,69.3,14.5,69.3,14.3z"/>
<path class="st1" d="M71.3,13.7c0-1.6,0.7-2.6,1.9-2.6c0.3,0,0.6,0.1,0.8,0.2c0.2,0.2,0.4,0.4,0.6,0.7h0.1V9.3h0.9v6.9h-0.9v-0.8
	h-0.1c-0.1,0.3-0.3,0.5-0.6,0.6c-0.2,0.2-0.5,0.2-0.8,0.2C72.1,16.2,71.3,15.3,71.3,13.7z M72.3,13.7c0,1.1,0.5,1.7,1.2,1.7
	c0.7,0,1.2-0.6,1.2-1.7c0-1-0.5-1.7-1.2-1.7C72.7,12,72.3,12.6,72.3,13.7z"/>
<path class="st1" d="M79.2,13.7c0-0.3,0-0.7,0.1-1c0.1-0.3,0.2-0.6,0.4-0.8c0.2-0.2,0.4-0.4,0.7-0.6c0.3-0.1,0.6-0.2,0.9-0.2
	s0.6,0.1,0.9,0.2c0.3,0.1,0.5,0.3,0.7,0.6c0.2,0.2,0.4,0.5,0.4,0.8c0.1,0.3,0.1,0.6,0.1,1c0,0.3,0,0.7-0.1,1
	c-0.1,0.3-0.2,0.6-0.4,0.8c-0.2,0.2-0.4,0.4-0.7,0.6c-0.3,0.1-0.6,0.2-0.9,0.2s-0.6-0.1-0.9-0.2c-0.3-0.1-0.5-0.3-0.7-0.6
	c-0.2-0.2-0.4-0.5-0.4-0.8C79.2,14.3,79.2,14,79.2,13.7z M82.6,13.7c0-1.1-0.4-1.7-1.2-1.7c-0.8,0-1.2,0.6-1.2,1.7
	c0,1.1,0.4,1.7,1.2,1.7C82.1,15.4,82.6,14.8,82.6,13.7z"/>
<path class="st1" d="M84.7,11.2h0.9V12h0.1c0.1-0.3,0.3-0.5,0.5-0.7c0.2-0.2,0.5-0.2,0.8-0.2c0.2,0,0.4,0,0.6,0.1
	c0.2,0.1,0.4,0.2,0.5,0.4c0.1,0.2,0.3,0.4,0.3,0.6s0.1,0.5,0.1,0.7v3.2h-0.9v-3c0-0.8-0.3-1.2-1-1.2c-0.1,0-0.3,0-0.4,0.1
	c-0.1,0.1-0.3,0.2-0.4,0.3c-0.1,0.1-0.2,0.3-0.2,0.4c0,0.2-0.1,0.3,0,0.5v2.9h-0.9V11.2z"/>
<path class="st1" d="M93.5,10v1.3h1v0.8h-1v2.5c0,0.5,0.2,0.7,0.6,0.7c0.1,0,0.2,0,0.3,0v0.8c-0.2,0-0.3,0-0.5,0
	c-1,0-1.4-0.4-1.4-1.3v-2.8h-0.7v-0.8h0.7V10H93.5z"/>
<path class="st1" d="M95.7,9.3h0.9V12h0.1c0.1-0.3,0.3-0.5,0.6-0.7c0.2-0.2,0.5-0.2,0.8-0.2c0.2,0,0.4,0,0.6,0.1
	c0.2,0.1,0.4,0.2,0.5,0.4c0.1,0.2,0.3,0.4,0.3,0.6c0.1,0.2,0.1,0.5,0.1,0.7v3.2h-0.9v-3c0-0.8-0.3-1.2-1-1.2c-0.2,0-0.3,0-0.5,0.1
	c-0.1,0.1-0.3,0.2-0.4,0.3c-0.1,0.1-0.2,0.3-0.2,0.4c-0.1,0.2-0.1,0.3-0.1,0.5v2.9h-0.9V9.3z"/>
<path class="st1" d="M104.8,14.8c-0.1,0.5-0.4,0.8-0.7,1.1c-0.4,0.3-0.8,0.4-1.2,0.3c-0.3,0-0.6-0.1-0.9-0.2
	c-0.3-0.1-0.5-0.3-0.7-0.6c-0.2-0.2-0.3-0.5-0.4-0.8c-0.1-0.3-0.1-0.6-0.1-1c0-0.3,0-0.7,0.1-1c0.1-0.3,0.2-0.6,0.4-0.8
	c0.2-0.2,0.4-0.4,0.7-0.6c0.3-0.1,0.6-0.2,0.9-0.2c1.3,0,2,0.9,2,2.5V14h-3.2V14c0,0.2,0,0.4,0.1,0.5c0.1,0.2,0.1,0.3,0.3,0.5
	c0.1,0.1,0.2,0.2,0.4,0.3c0.2,0.1,0.3,0.1,0.5,0.1c0.2,0,0.4,0,0.6-0.1c0.2-0.1,0.3-0.3,0.5-0.5H104.8z M101.6,13.2h2.3
	c0-0.2,0-0.3-0.1-0.5c-0.1-0.2-0.1-0.3-0.2-0.4c-0.1-0.1-0.2-0.2-0.4-0.3c-0.1-0.1-0.3-0.1-0.4-0.1c-0.2,0-0.3,0-0.4,0.1
	c-0.1,0.1-0.3,0.2-0.4,0.3c-0.1,0.1-0.2,0.3-0.3,0.4C101.7,12.9,101.6,13.1,101.6,13.2z"/>
</svg>
