<?xml version="1.0" encoding="UTF-8" standalone="no"?>
<svg width="115px" height="26px" viewBox="0 0 115 26" version="1.1" xmlns="http://www.w3.org/2000/svg" xmlns:xlink="http://www.w3.org/1999/xlink">
    <!-- Generator: Sketch 3.6.1 (26313) - http://www.bohemiancoding.com/sketch -->
    <title>Slice 1</title>
    <desc>Created with Sketch.</desc>
    <defs>
        <path id="path-1" d="M0,0.124 L114.999009,0.124 L114.999009,26 L0,26"></path>
        <path id="path-3" d="M0,0.124 L114.999009,0.124 L114.999009,26 L0,26"></path>
        <path id="path-5" d="M0,0.124 L114.999009,0.124 L114.999009,26 L0,26 L0,0.124 Z"></path>
    </defs>
    <g id="Page-1" stroke="none" stroke-width="1" fill="none" fill-rule="evenodd">
        <g id="White-Logo" transform="translate(-10.000000, -9.000000)">
            <g id="White" transform="translate(10.000000, 9.000000)">
                <path d="M14.1088147,16.3566 L16.4544181,16.3566 C17.1374784,16.3566 17.5637716,15.9686 17.5637716,15.3516 C17.5637716,14.7636 17.1374784,14.3466 16.4544181,14.3466 L14.1088147,14.3466 C14.0047198,14.3466 13.921444,14.4316 13.921444,14.5366 L13.921444,16.1676 C13.921444,16.2716 14.0047198,16.3566 14.1088147,16.3566" id="Fill-1" fill="#FFFFFF"></path>
                <path d="M14.1088147,20.3326 L16.5396767,20.3326 C17.293125,20.3326 17.7491595,19.9306 17.7491595,19.2416 C17.7491595,18.6396 17.321875,18.1506 16.5396767,18.1506 L14.1088147,18.1506 C14.0047198,18.1506 13.921444,18.2356 13.921444,18.3406 L13.921444,20.1436 C13.921444,20.2476 14.0047198,20.3326 14.1088147,20.3326" id="Fill-3" fill="#FFFFFF"></path>
                <path d="M32.8436034,15.3058 C32.3855862,14.6968 31.6212328,14.2038 30.6982586,14.2038 C28.9623534,14.2038 27.70925,15.5388 27.70925,17.3468 C27.70925,19.1558 28.9623534,20.4908 30.6982586,20.4908 C31.5002845,20.4908 32.2497672,20.1498 32.6502845,19.8068 C32.6859741,19.7758 32.703819,19.7308 32.703819,19.6838 L32.703819,18.7618 C32.703819,18.6778 32.6373966,18.6098 32.5541207,18.6098 L30.3998534,18.6098 C30.2898103,18.6098 30.1995948,18.5198 30.1995948,18.4078 L30.1995948,17.0328 C30.1995948,16.9208 30.2898103,16.8298 30.3998534,16.8298 L34.3752845,16.8298 L34.3752845,14.6638 L33.1023534,15.3658 C33.0170948,15.4138 32.9030862,15.3848 32.8436034,15.3058" id="Fill-5" fill="#FFFFFF"></path>
                <path d="M36.171069,17.3392 C36.171069,14.3822 38.2708103,12.3872 40.9752931,12.3872 C42.7359828,12.3872 43.8681379,13.2942 44.5511983,14.3792 C44.6017586,14.4592 44.5730086,14.5632 44.4907241,14.6082 L43.4101207,15.2012 C43.3397328,15.2402 43.2495172,15.2142 43.2068879,15.1452 C42.7458966,14.4072 41.8972759,13.8802 40.9752931,13.8802 C39.1630517,13.8802 37.8187414,15.3152 37.8187414,17.3392 C37.8187414,19.3342 39.1630517,20.7992 40.9752931,20.7992 C41.8982672,20.7992 42.7468879,20.2582 43.2078793,19.5302 C43.2505086,19.4632 43.3387414,19.4362 43.4091293,19.4732 L44.4976638,20.0422 C44.5839138,20.0872 44.6126638,20.1922 44.5591293,20.2742 C43.8532672,21.3602 42.734,22.2912 40.9752931,22.2912 C38.2708103,22.2912 36.171069,20.2822 36.171069,17.3392" id="Fill-7" fill="#FFFFFF"></path>
                <path d="M53.2072284,17.3392 C53.2072284,15.3582 52.011625,13.8802 50.1706336,13.8802 C48.3157629,13.8802 47.1340388,15.3582 47.1340388,17.3392 C47.1340388,19.3062 48.3157629,20.7992 50.1706336,20.7992 C52.011625,20.7992 53.2072284,19.3062 53.2072284,17.3392 M45.485375,17.3392 C45.485375,14.9572 46.8326595,13.1042 48.8739095,12.5542 C52.3229181,11.6252 55.4883922,14.8852 54.7379181,18.5232 C54.2769267,20.7562 52.5112802,22.2912 50.1706336,22.2912 C47.4225302,22.2912 45.485375,20.1962 45.485375,17.3392" id="Fill-9" fill="#FFFFFF"></path>
                <path d="M64.7010819,22.0065 L64.7010819,14.7275 L61.8181509,22.0685 C61.8062543,22.0995 61.7765129,22.1195 61.7437974,22.1195 L61.1410388,22.1195 C61.1083233,22.1195 61.0785819,22.0995 61.0666853,22.0685 L58.169875,14.7275 L58.169875,22.0065 C58.169875,22.0685 58.1193147,22.1195 58.0578491,22.1195 L56.6163836,22.1195 C56.5549181,22.1195 56.5043578,22.0685 56.5043578,22.0065 L56.5043578,12.6575 C56.5043578,12.5955 56.5549181,12.5455 56.6163836,12.5455 L58.6992716,12.5455 C58.7914698,12.5455 58.8747457,12.6025 58.909444,12.6885 L61.4424181,19.2585 L63.9615129,12.6895 C63.9952198,12.6025 64.0784957,12.5455 64.1716853,12.5455 L66.2545733,12.5455 C66.3160388,12.5455 66.3665991,12.5955 66.3665991,12.6575 L66.3665991,22.0065 C66.3665991,22.0685 66.3160388,22.1195 66.2545733,22.1195 L64.8131078,22.1195 C64.7506509,22.1195 64.7010819,22.0685 64.7010819,22.0065" id="Fill-11" fill="#FFFFFF"></path>
                <path d="M81.0962155,21.9461 L81.0962155,12.7181 C81.0962155,12.6231 81.1735431,12.5451 81.2677241,12.5451 L87.4281552,12.5451 C87.5223362,12.5451 87.5996638,12.6231 87.5996638,12.7181 L87.5996638,13.8501 C87.5996638,13.9461 87.5223362,14.0231 87.4281552,14.0231 L82.9332414,14.0231 C82.838069,14.0231 82.7617328,14.1011 82.7617328,14.1971 L82.7617328,16.3191 C82.7617328,16.4151 82.838069,16.4921 82.9332414,16.4921 L87.3290172,16.4921 C87.4231983,16.4921 87.5005259,16.5701 87.5005259,16.6651 L87.5005259,17.7971 C87.5005259,17.8931 87.4231983,17.9711 87.3290172,17.9711 L82.9332414,17.9711 C82.838069,17.9711 82.7617328,18.0481 82.7617328,18.1441 L82.7617328,20.4681 C82.7617328,20.5631 82.838069,20.6411 82.9332414,20.6411 L87.4281552,20.6411 C87.5223362,20.6411 87.5996638,20.7181 87.5996638,20.8141 L87.5996638,21.9461 C87.5996638,22.0421 87.5223362,22.1191 87.4281552,22.1191 L81.2677241,22.1191 C81.1735431,22.1191 81.0962155,22.0421 81.0962155,21.9461" id="Fill-13" fill="#FFFFFF"></path>
                <path d="M95.5440819,15.5309 C95.5440819,14.6119 94.8610216,14.0239 93.9221853,14.0239 L91.8006336,14.0239 C91.707444,14.0239 91.6311078,14.0999 91.6311078,14.1949 L91.6311078,16.8949 C91.6311078,16.9899 91.707444,17.0669 91.8006336,17.0669 L93.9221853,17.0669 C94.8610216,17.0669 95.5440819,16.4639 95.5440819,15.5309 M95.337875,22.0349 L93.3452026,18.6289 C93.3144698,18.5769 93.2589526,18.5449 93.1984784,18.5449 L91.8006336,18.5449 C91.707444,18.5449 91.6311078,18.6219 91.6311078,18.7169 L91.6311078,21.9479 C91.6311078,22.0429 91.5547716,22.1189 91.4605905,22.1189 L90.1361078,22.1189 C90.0419267,22.1189 89.9655905,22.0429 89.9655905,21.9479 L89.9655905,12.7169 C89.9655905,12.6219 90.0419267,12.5449 90.1361078,12.5449 L94.1353319,12.5449 C96.0139957,12.5449 97.2522284,13.7649 97.2522284,15.5449 C97.2522284,17.1209 96.2905905,18.0389 95.2288233,18.3089 C95.1138233,18.3379 95.0553319,18.4639 95.1177888,18.5659 C95.5143405,19.2049 96.7208491,21.1499 97.1610216,21.8579 C97.2314095,21.9719 97.149125,22.1189 97.0162802,22.1189 L95.4845991,22.1189 C95.4251164,22.1189 95.3686078,22.0869 95.337875,22.0349" id="Fill-15" fill="#FFFFFF"></path>
                <g id="Group-19">
                    <mask id="mask-2" fill="white">
                        <use xlink:href="#path-1"></use>
                    </mask>
                    <g id="Clip-18"></g>
                    <path d="M108.495957,21.9504 L108.495957,12.7144 C108.495957,12.6204 108.571302,12.5454 108.6635,12.5454 L114.831862,12.5454 C114.92406,12.5454 114.999405,12.6204 114.999405,12.7144 L114.999405,13.8544 C114.999405,13.9484 114.92406,14.0234 114.831862,14.0234 L110.329017,14.0234 C110.235828,14.0234 110.161474,14.0994 110.161474,14.1924 L110.161474,16.3234 C110.161474,16.4164 110.235828,16.4924 110.329017,16.4924 L114.732724,16.4924 C114.824922,16.4924 114.900267,16.5684 114.900267,16.6614 L114.900267,17.8014 C114.900267,17.8954 114.824922,17.9704 114.732724,17.9704 L110.329017,17.9704 C110.235828,17.9704 110.161474,18.0464 110.161474,18.1394 L110.161474,20.4724 C110.161474,20.5654 110.235828,20.6414 110.329017,20.6414 L114.831862,20.6414 C114.92406,20.6414 114.999405,20.7164 114.999405,20.8094 L114.999405,21.9504 C114.999405,22.0434 114.92406,22.1194 114.831862,22.1194 L108.6635,22.1194 C108.571302,22.1194 108.495957,22.0434 108.495957,21.9504" id="Fill-17" fill="#FFFFFF" mask="url(#mask-2)"></path>
                </g>
                <path d="M98.4707328,17.2994 C98.4707328,14.3424 100.570474,12.3474 103.274957,12.3474 C105.035647,12.3474 106.167802,13.2544 106.850862,14.3394 C106.901422,14.4194 106.872672,14.5234 106.790388,14.5684 L105.709784,15.1614 C105.639397,15.2004 105.549181,15.1744 105.506552,15.1054 C105.04556,14.3674 104.19694,13.8404 103.274957,13.8404 C101.462716,13.8404 100.118405,15.2754 100.118405,17.2994 C100.118405,19.2944 101.462716,20.7594 103.274957,20.7594 C104.197931,20.7594 105.046552,20.2184 105.507543,19.4904 C105.550172,19.4234 105.638405,19.3964 105.708793,19.4334 L106.797328,20.0024 C106.883578,20.0474 106.912328,20.1524 106.858793,20.2344 C106.152931,21.3204 105.033664,22.2514 103.274957,22.2514 C100.570474,22.2514 98.4707328,20.2424 98.4707328,17.2994" id="Fill-20" fill="#FFFFFF"></path>
                <path d="M76.9943836,22.0065 L76.9943836,14.7275 L74.1114526,22.0685 C74.099556,22.0995 74.0698147,22.1195 74.0370991,22.1195 L73.4343405,22.1195 C73.401625,22.1195 73.3718836,22.0995 73.3599871,22.0685 L70.4631767,14.7275 L70.4631767,22.0065 C70.4631767,22.0685 70.4126164,22.1195 70.3511509,22.1195 L68.9096853,22.1195 C68.8482198,22.1195 68.7976595,22.0685 68.7976595,22.0065 L68.7976595,12.6575 C68.7976595,12.5955 68.8482198,12.5455 68.9096853,12.5455 L70.9925733,12.5455 C71.0847716,12.5455 71.1680474,12.6025 71.2027457,12.6885 L73.7357198,19.2585 L76.2548147,12.6895 C76.2885216,12.6025 76.3717974,12.5455 76.4649871,12.5455 L78.547875,12.5455 C78.6093405,12.5455 78.6599009,12.5955 78.6599009,12.6575 L78.6599009,22.0065 C78.6599009,22.0685 78.6093405,22.1195 78.547875,22.1195 L77.1064095,22.1195 C77.0439526,22.1195 76.9943836,22.0685 76.9943836,22.0065" id="Fill-22" fill="#FFFFFF"></path>
                <g id="Group-26">
                    <mask id="mask-4" fill="white">
                        <use xlink:href="#path-3"></use>
                    </mask>
                    <g id="Clip-25"></g>
                    <path d="M0.882625,26 L16.7516336,26 L16.7417198,25.994 L0.845943966,25.994 C0.858831897,25.995 0.869737069,26 0.882625,26" id="Fill-24" fill="#FFFFFF" mask="url(#mask-4)"></path>
                </g>
                <g id="Group-29">
                    <mask id="mask-6" fill="white">
                        <use xlink:href="#path-5"></use>
                    </mask>
                    <g id="Clip-28"></g>
                    <path d="M23.7657414,21.9534 C23.7657414,22.0494 23.6884138,22.1274 23.5932414,22.1274 L21.916819,22.1274 C21.8216466,22.1274 21.7453103,22.0494 21.7453103,21.9534 L21.7453103,12.7264 C21.7453103,12.6304 21.8216466,12.5534 21.916819,12.5534 L23.5932414,12.5534 C23.6884138,12.5534 23.7657414,12.6304 23.7657414,12.7264 L23.7657414,21.9534 Z M33.1937586,0.1844 C33.0886724,0.2264 32.985569,0.2824 32.8953534,0.3744 L16.4335,12.5534 L16.8954828,12.5534 C18.7027672,12.5534 19.6277241,13.7154 19.6277241,14.9924 C19.6277241,15.9854 19.1141897,16.7184 18.425181,17.0434 C18.3052241,17.1004 18.3091897,17.2624 18.4311293,17.3124 C19.2351379,17.6464 19.8121207,18.5144 19.8121207,19.5284 C19.8121207,20.9784 18.8732845,22.1274 17.0521207,22.1274 L12.0882845,22.1274 C11.9841897,22.1274 11.8999224,22.0424 11.8999224,21.9374 L11.8999224,15.8974 L0.244275862,24.4964 C-0.279172414,25.0514 0.0925948276,25.9634 0.846043103,25.9944 L16.741819,25.9944 L27.3128966,25.9944 L33.5080259,25.9944 C33.9868621,25.9944 34.3754828,25.6024 34.3754828,25.1194 L34.3754828,23.5334 L34.3754828,20.8604 C33.4406121,21.7444 32.2103103,22.2994 30.6974655,22.2994 C27.9087155,22.2994 25.6315172,20.3614 25.6315172,17.3474 C25.6315172,14.3184 27.9087155,12.3954 30.6974655,12.3954 C32.4611293,12.3954 33.6378966,13.2054 34.3754828,14.1914 L34.3754828,0.9914 C34.3754828,0.3414 33.7271207,-0.0286 33.1937586,0.1844 L33.1937586,0.1844 Z" id="Fill-27" fill="#FFFFFF" mask="url(#mask-6)"></path>
                </g>
            </g>
        </g>
    </g>
</svg>