<svg viewBox="0 0 722.16 145.49" xmlns="http://www.w3.org/2000/svg"><path d="m224.88 0a11.61 11.61 0 0 0 2.84.72 22.72 22.72 0 0 1 16.87 22q0 38 0 76a22.65 22.65 0 0 1 -20.3 22.72 25.1 25.1 0 0 1 -2.87.16h-70.93c.56 1.4 1.07 2.68 1.59 4q3.82 9.36 7.64 18.74c.13.34.62.71.12 1.14-.17-.1-.33-.22-.51-.32q-20.72-11.55-41.44-23.1a4 4 0 0 0 -2.07-.43h-92.37a29.12 29.12 0 0 1 -3.23-.17 22.71 22.71 0 0 1 -20.22-22.46v-76.5a22.68 22.68 0 0 1 17.65-21.99 5.11 5.11 0 0 0 2-.51zm-187.54 77.68c-.17-.56-.28-.88-.36-1.22-4.07-16.89-7.14-34-9.64-51.17-.83-5.7-3.49-8.09-8.9-7.74-4.86.32-7.92 3.58-7.91 8.47a49.38 49.38 0 0 0 1.08 7.98c2.05 12.61 4.24 25.19 6.89 37.69a251.55 251.55 0 0 0 7.17 27.81 27.64 27.64 0 0 0 3.87 8.33c2.07 2.69 4.68 3.17 7.58 1.38a13.8 13.8 0 0 0 2.43-1.94 41.44 41.44 0 0 0 6.93-9.45c4.63-8.21 8.46-16.82 12.77-25.13 1.42-2.76 2.8-5.53 4.21-8.3.44.28.41.69.51 1q1.26 4.31 2.77 8.54c3.8 10.55 8.59 20.57 15.84 29.24a25.51 25.51 0 0 0 6 5.82c4.06 2.51 8.46 1.46 10.46-2.47a10.49 10.49 0 0 0 1.15-5.45 132 132 0 0 1 .43-20.47 279.86 279.86 0 0 1 4.75-32.09c1.68-7.9 3.63-15.72 7.43-22.94a7.84 7.84 0 0 0 .83-4.54 8.78 8.78 0 0 0 -7-7.57 8 8 0 0 0 -9.12 4.38 57.36 57.36 0 0 0 -3 6.4c-5.22 13.24-7.51 27.13-9.31 41.13-.28 2.19-.52 4.38-.79 6.66-.55-.35-.57-.82-.72-1.21a184.93 184.93 0 0 1 -7.87-27.73c-.61-2.88-.87-5.85-2.11-8.58a7 7 0 0 0 -11.09-2.75 13.18 13.18 0 0 0 -3.5 4.51q-9.81 18.67-19.61 37.34c-.68 1.3-1.37 2.58-2.17 4.07zm137.13-10.38a40 40 0 0 0 4.15 18.77c7.15 14.48 25.43 16.58 35.86 9.22 4.76-3.36 8.13-7.85 10.91-12.87a53.19 53.19 0 0 0 6.61-23.78 42.76 42.76 0 0 0 -3.06-19c-5.75-13.44-18.11-17-28.51-14.89-6.38 1.28-11.25 5-15.13 10.08a52.23 52.23 0 0 0 -10.83 32.47zm-62.7 2.38a39.82 39.82 0 0 0 3.4 14.89c7 16.26 26.45 18.29 37.11 10.38 4.94-3.67 8.37-8.52 11.14-13.9a53.8 53.8 0 0 0 5.8-28.28 39 39 0 0 0 -3.14-13.45c-5.74-13.09-18.08-16.68-28.37-14.57-6.51 1.33-11.43 5.18-15.35 10.37-7.18 9.51-10.56 20.31-10.59 34.56z" fill="#9a5c8e"/><path d="m722.16 95.76a2.57 2.57 0 0 0 -1.29-.11h-35.87c-.36-.3-.25-.6-.25-.86v-66.66c0-.16 0-.32 0-.48h1 35.25a1.14 1.14 0 0 1 .89.19v14.16h-18.67v12.5h16.19v14.17h-16.15v12.45h18.9z"/><path d="m722.16 42h-.26v-14.21a1.14 1.14 0 0 0 -.89-.19h-35.27c-.32 0-.64 0-1 0 .32-.55.85-.28 1.28-.28h36.09z" fill="#7f7f7f"/><path d="m428.69 50.19q-4.51 18.54-9 37.08c-.67 2.75-1.34 5.5-2 8.3h-12.53q-5.82-22.9-11.65-45.89h-.27q-2.3 22.91-4.6 45.88h-17.47q4.35-34 8.69-68h23.28q4.16 18.37 7.79 36.94c2.22-12.43 5.21-24.67 8.14-37h23.87q4.59 34 9.19 68.05h-18.27l-4.77-45.64c0-.21.15-.43-.11-.6a1 1 0 0 0 -.29.88z"/><path d="m471.93 95.59h-17.46q4.35-34.07 8.69-68.05h23.27q4.19 18.43 7.8 37.06c2.2-12.47 5.2-24.73 8.14-37.06h23.77q4.59 33.95 9.19 68h-18.26q-2.42-22.93-4.81-45.82h-.26q-5.52 22.91-11.07 45.85h-12.47l-11.67-46h-.24q-2.31 22.99-4.62 46.02z"/><path d="m369.72 62.84a45.14 45.14 0 0 1 -4.15 19.36c-4.62 9.41-12.26 14.3-22.64 15a33.79 33.79 0 0 1 -15.85-2.29c-7.25-3.1-11.69-8.77-14.32-16a49.13 49.13 0 0 1 -2.7-14.91c-.28-6.54.09-13 2.15-19.28 3.86-11.73 12.9-18.57 25.22-19.1 6.17-.26 12.11.55 17.6 3.55 6.91 3.79 10.76 9.9 12.87 17.27 1.39 4.84 1.83 9.8 1.82 16.4zm-40.2.5c.09 1.58.19 3.61.36 5.64a26.92 26.92 0 0 0 1.12 6.11c1.09 3.37 3 5.92 6.75 6.52 5.19.84 9.22-1.81 10.76-7.07s1.67-10.87 1.51-16.39a29.1 29.1 0 0 0 -2.23-11.31 9 9 0 0 0 -5.51-5.31c-4.69-1.45-8.83.7-10.76 5.65s-2.01 10.39-2 16.16z"/><path d="m616.73 95.54-14.82-30.82h-.19v30.82h-18.46v-68.06h1.19c7.08 0 14.16-.05 21.24 0a35.58 35.58 0 0 1 16.95 4 18.58 18.58 0 0 1 5.42 28.73 19.55 19.55 0 0 1 -6.5 4.75l14.66 30.61zm-15.08-54.93v16.14a20.42 20.42 0 0 0 8-1.38 6.37 6.37 0 0 0 3.46-3.14 8 8 0 0 0 -4.32-10.48 24.94 24.94 0 0 0 -7.14-1.14z"/><path d="m577.82 27.65v14.43h-18.76v12.38h16.18v14.21h-16.18v12.44h18.8v14.55h-37.16v-68z"/><path d="m306.06 27v16.2a67.78 67.78 0 0 0 -6.74-1.3c-12.17-1.7-18.33 7.2-19.46 15.15-.77 5.44-.42 10.8 2.39 15.69 3.08 5.35 7.83 8 14 8.19a33.28 33.28 0 0 0 9.75-1.43v16.24a35.83 35.83 0 0 1 -11.26 1.58c-6.49-.13-12.69-1.44-18.29-4.84-9.2-5.6-14.45-13.9-16.03-24.48-1.08-7.12-.92-14.23 1.87-21 4.87-11.78 13.7-18.76 26.27-20.87a43.88 43.88 0 0 1 16.31.5c.39.1.77.22 1.19.37z"/><path d="m679.6 26.93v16.27a55.94 55.94 0 0 0 -7.29-1.36c-7-.74-12.45 1.68-16.23 7.66a19.74 19.74 0 0 0 -2.92 9.14c-.41 4.9.06 9.68 2.55 14 3.07 5.36 7.79 8 13.95 8.25a30.05 30.05 0 0 0 8.64-1.1l1.31-.33v16.25a38.36 38.36 0 0 1 -29.4-3.09c-9-5.35-14.26-13.3-16.1-23.52-1.33-7.39-1.26-14.78 1.58-21.82 4.81-12 13.73-19 26.46-21.13a44 44 0 0 1 17.45.78z"/><path d="m428.69 50.19a1 1 0 0 1 .29-.85c.26.17.15.39.11.6z" fill="#939393"/><g fill="#9a5c8e"><path d="m191.25 66a32.11 32.11 0 0 1 7.63-20.81 13.28 13.28 0 0 1 3.2-2.87c3.7-2.33 7.49-1.52 9.81 2.2a22.39 22.39 0 0 1 3.33 11.12 34.29 34.29 0 0 1 -3.79 17.46 18.8 18.8 0 0 1 -7.31 7.9c-3.92 2.27-7.23 1.42-9.63-2.4a24.89 24.89 0 0 1 -3.24-12.6z"/><path d="m152.62 56.76c-.24 7.16-1.69 13.79-6 19.52a17.12 17.12 0 0 1 -5.45 4.81c-3.74 2.06-7.13 1.2-9.35-2.46a23.09 23.09 0 0 1 -3.28-11.25 31.89 31.89 0 0 1 8-22.68 11.53 11.53 0 0 1 3.37-2.7c3.5-1.87 6.9-1.08 9.09 2.22a22.67 22.67 0 0 1 3.4 10c.12.87.16 1.78.22 2.54z"/></g></svg>