<svg enable-background="new 0 0 512 512" viewBox="0 0 512 512" xmlns="http://www.w3.org/2000/svg"><path d="m201.302 49.754-192 24.939c-5.353.691-9.346 5.27-9.302 10.667v149.333c0 5.891 4.776 10.667 10.667 10.667h192c5.891 0 10.667-4.776 10.667-10.667v-174.379c-.004-3.064-1.325-5.978-3.627-8-2.319-1.994-5.368-2.923-8.405-2.56z" fill="#f44336"/><path d="m508.374 13.36c-2.286-2.06-5.35-3.032-8.405-2.667l-256 33.387c-5.352.691-9.346 5.27-9.301 10.667v179.947c0 5.891 4.776 10.667 10.667 10.667h256c5.891 0 10.667-4.776 10.667-10.667v-213.334c-.005-3.064-1.327-5.978-3.628-8z" fill="#4caf50"/><path d="m202.667 266.693h-192c-5.891 0-10.667 4.776-10.667 10.667v149.333c-.044 5.397 3.949 9.976 9.301 10.667l192 25.045c.455.031.911.031 1.365 0 5.891 0 10.667-4.776 10.667-10.667v-174.378c.001-5.891-4.775-10.667-10.666-10.667z" fill="#2196f3"/><path d="m501.334 266.693h-256c-5.891 0-10.667 4.776-10.667 10.667v179.947c-.044 5.397 3.949 9.976 9.301 10.667l256 33.387c.455.031.911.031 1.365 0 5.891 0 10.667-4.776 10.667-10.667v-213.334c0-5.891-4.775-10.667-10.666-10.667z" fill="#ffc107"/></svg>