<svg xmlns="http://www.w3.org/2000/svg" width="222" height="44" viewBox="0 0 222 44">
    <g fill="#28724F">
        <path d="M153.53 4.046C150.398.875 145.98 0 142.514 0c-4.362 0-7.997 1.64-10.57 3.991-.559.492-1.006.984-1.397 1.476-.84 1.039-2.349.984-3.132-.054-.335-.493-.671-.93-1.006-1.258C123.389.985 119.586 0 116.23 0c-4.81 0-8.164 2.023-10.178 3.882-.67.601-1.677.546-2.292-.11l-1.51-1.804c-.392-.437-.95-.71-1.51-.71h-4.753c-.615 0-1.119.492-1.119 1.093v38.325c0 .601.504 1.093 1.119 1.093h7.605c.615 0 1.174-.492 1.174-1.093V19.901c0-2.351.392-4.866 1.566-6.998 1.23-2.078 3.467-3.773 7.102-3.773 3.579.055 5.592 1.64 6.822 3.773 1.063 2.077 1.286 4.373 1.286 6.724v21.104c0 .601.504 1.093 1.175 1.093h7.605c.615 0 1.174-.492 1.174-1.093V19.573c0-2.46.168-4.593 1.454-6.78 1.286-2.241 3.691-3.717 7.158-3.717 3.467 0 5.424 1.312 6.487 3.335 1.454 2.132 1.677 4.92 1.677 7.544v20.721c0 .601.504 1.093 1.119 1.093h7.605c.615 0 1.118-.492 1.118-1.093V19.573c-.055-8.31-.782-11.646-4.585-15.527M22.377.001c-5.312-.054-8.702 1.697-10.906 3.887-.678.657-1.865.602-2.486-.164L7.459 1.972c-.396-.438-.904-.712-1.526-.712H1.13C.51 1.26 0 1.753 0 2.355V40.73c0 .602.509 1.095 1.187 1.095h7.685c.621 0 1.186-.493 1.186-1.095V19.435c0-5.694 2.43-10.292 9.55-10.347 7.007 0 9.098 4.653 9.098 10.73v20.911c0 .602.508 1.095 1.186 1.095h7.685c.622 0 1.187-.493 1.187-1.095V17.41C38.65 10.238 36.05.111 22.377.001M197.785 3.229c-.167 1.057-1.45 1.558-2.23.835C193.102 1.837 189.31 0 184.236 0c-11.597 0-21.02 8.85-21.02 21.876 0 11.635 7.75 21.988 21.02 21.988 4.405 0 8.587-1.391 11.542-4.119.948-.89 2.453-.78 3.29.223l1.617 1.948c.39.445.948.724 1.505.724h4.74c.613 0 1.17-.501 1.17-1.114V2.394c0-.613-.501-1.114-1.17-1.114h-7.75c-.558 0-1.06.39-1.116.947l-.279 1.002zm-1.17 24.77c-1.896 3.786-5.52 6.625-10.985 6.625-8.865 0-12.6-7.46-12.6-12.58v-.056c0-6.402 4.516-12.859 12.489-12.859 5.966 0 9.813 3.396 11.542 7.292.836 1.782 1.226 3.841 1.115 5.79-.112 2.06-.558 4.007-1.562 5.789M77.5 3.229c-.168 1.057-1.454 1.558-2.236.835C72.804 1.837 69.004 0 63.917 0 52.291 0 42.844 8.85 42.844 21.876c0 11.635 7.77 21.988 21.073 21.988 4.416 0 8.608-1.391 11.57-4.119.95-.89 2.46-.78 3.298.223l1.621 1.948c.392.445.95.724 1.51.724h4.695c.615 0 1.118-.501 1.118-1.114V2.394c0-.613-.503-1.114-1.118-1.114h-7.77c-.559 0-1.062.39-1.118.947L77.5 3.229zm-1.174 24.77c-1.9 3.786-5.534 6.625-11.012 6.625-8.887 0-12.632-7.46-12.632-12.58v-.056c0-6.402 4.527-12.859 12.52-12.859 5.981 0 9.838 3.396 11.571 7.292.838 1.782 1.23 3.841 1.118 5.79-.112 2.06-.559 4.007-1.565 5.789"/>
        <g>
            <path d="M4.37 8.112C2.344 8.112.683 6.284.683 4.056.683 1.828 2.344 0 4.37 0c2.025 0 3.687 1.828 3.687 4.056 0 2.228-1.662 4.056-3.687 4.056zm0-7.37c-1.662 0-3.012 1.486-3.012 3.314s1.35 3.313 3.012 3.313 3.012-1.485 3.012-3.313S6.032.743 4.37.743z" transform="translate(212.18)"/>
            <path d="M6.24 6.227v.057l-.053.057H5.46c-.052 0-.052-.057-.052-.057s0-.057-.052-.057l-.363-1.029c-.052-.114-.104-.228-.156-.285-.052-.114-.104-.172-.156-.229-.052-.057-.104-.114-.155-.114-.052-.057-.156-.057-.26-.057h-.26v1.771l-.052.057h-.623c-.052 0-.052 0-.052-.057V2.114c0-.115 0-.172.052-.229.052-.057.104-.057.156-.057h1.506c.156 0 .312.057.467.114.156.057.26.172.312.229.052.057.156.228.208.343.052.114.052.285.052.457 0 .17 0 .285-.052.4l-.156.342c-.052.114-.156.172-.26.229-.104.057-.208.114-.363.171.052.057.104.057.155.114l.156.172c.052.057.104.114.156.228.052.057.104.172.104.286l.363.914c.052.114.052.171.052.171 0 .172.052.229.052.229zM5.148 3.142c0-.171-.052-.286-.104-.4-.052-.114-.156-.171-.312-.228h-.727V3.77h.416c.104 0 .207 0 .311-.057.104-.057.156-.057.208-.114.052-.057.104-.114.156-.229.052 0 .052-.114.052-.228z" transform="translate(212.18)"/>
        </g>
    </g>
</svg>
