<svg enable-background="new 0 0 453.8 31.4" height="31.4" viewBox="0 0 453.8 31.4" width="453.8" xmlns="http://www.w3.org/2000/svg"><g fill="#3b4559"><path d="m1.6 1.2c0-.4.3-.8.8-.8h10c5.4 0 9.8 4.4 9.8 9.7 0 5.4-4.4 9.8-9.8 9.8h-6.3v10.3c0 .4-.4.8-.8.8h-2.9c-.5 0-.8-.4-.8-.8zm10.6 14.4c3 0 5.6-2.4 5.6-5.6 0-3-2.5-5.2-5.6-5.2h-6v10.8zm22.1-14.4c0-.4.3-.8.8-.8h2.9c.4 0 .8.4.8.8v25.7h11.8c.5 0 .8.4.8.8v2.4c0 .4-.3.8-.8.8h-15.6c-.5 0-.8-.4-.8-.8zm30 0c0-.4.3-.8.8-.8h17.5c.5 0 .8.4.8.8v2.4c0 .4-.3.8-.8.8h-13.9v8.9h11.7c.4 0 .8.4.8.8v2.4c0 .5-.4.8-.8.8h-11.7v9.4h13.8c.5 0 .8.4.8.8v2.4c0 .4-.3.8-.8.8h-17.4c-.5 0-.8-.4-.8-.8zm29.7 28.7 13.4-29.4c.1-.3.5-.5.8-.5h.4c.2 0 .6.2.8.5l13.3 29.4c.3.6-.1 1.1-.8 1.1h-2.8c-.5 0-.8-.3-1-.6l-2.7-6h-14.3c-.9 2-1.8 4-2.6 6-.1.3-.5.6-1 .6h-2.8c-.6 0-1-.6-.7-1.1m19.8-9.3-5.4-12h-.2l-5.3 12c-.1 0 10.9 0 10.9 0zm18.6 6c.4-.6.8-1.2 1.1-1.8.4-.6 1-.8 1.5-.3.3.2 3.6 3 7 3 3 0 5-1.8 5-4 0-2.6-2.3-4.3-6.6-6.1-4.5-1.9-7.9-4.2-7.9-9.3 0-3.4 2.6-8.1 9.5-8.1 4.4 0 7.7 2.3 8.1 2.6.3.2.7.8.3 1.5-.3.5-.8 1.1-1.1 1.7s-.9.8-1.5.4c-.3-.2-3.3-2.2-5.8-2.2-3.7 0-5 2.3-5 3.9 0 2.5 1.9 4 5.6 5.5 5.1 2.1 9.4 4.5 9.4 9.8 0 4.5-4 8.3-9.8 8.3-5.3 0-8.7-2.8-9.4-3.5-.5-.3-.8-.6-.4-1.4m28.9 3.3 13.4-29.4c.1-.3.5-.5.8-.5h.4c.2 0 .6.2.8.5l13.3 29.4c.3.6-.1 1.1-.8 1.1h-2.8c-.5 0-.8-.3-1-.6l-2.7-6h-14.3c-.9 2-1.8 4-2.6 6-.1.3-.5.6-1 .6h-2.8c-.7 0-1-.6-.7-1.1m19.7-9.3-5.4-12h-.2l-5.3 12zm20.5-19.8c0-.4.4-.8.8-.8h1.1l18.9 22h.1v-20.8c0-.4.3-.8.8-.8h2.8c.4 0 .8.4.8.8v29.4c0 .4-.4.8-.8.8h-1.1l-19-22.5h-.1v21.3c0 .4-.3.8-.8.8h-2.8c-.4 0-.8-.4-.8-.8v-29.4zm46.9 3.7h-7.1c-.5 0-.8-.4-.8-.8v-2.5c0-.4.3-.8.8-.8h18.8c.5 0 .8.4.8.8v2.4c0 .4-.3.8-.8.8h-7.1v25.6c0 .4-.4.8-.8.8h-2.9c-.4 0-.8-.4-.8-.8zm41.5 22.1c.4-.6.8-1.2 1.1-1.8s1-.8 1.5-.3c.3.2 3.6 3 7 3 3 0 5-1.8 5-4 0-2.6-2.3-4.3-6.6-6.1-4.5-1.9-7.9-4.2-7.9-9.3 0-3.4 2.6-8.1 9.5-8.1 4.4 0 7.7 2.3 8.1 2.6.3.2.7.8.3 1.5-.3.5-.8 1.1-1.1 1.7s-.9.8-1.5.4c-.3-.2-3.3-2.2-5.8-2.2-3.7 0-5 2.3-5 3.9 0 2.5 1.9 4 5.6 5.5 5.1 2.1 9.4 4.5 9.4 9.8 0 4.5-4 8.3-9.8 8.3-5.3 0-8.7-2.8-9.4-3.5-.5-.3-.8-.6-.4-1.4m37.6-22.1h-7.1c-.5 0-.8-.4-.8-.8v-2.5c0-.4.3-.8.8-.8h18.8c.5 0 .8.4.8.8v2.4c0 .4-.3.8-.8.8h-7.1v25.6c0 .4-.4.8-.8.8h-2.9c-.4 0-.8-.4-.8-.8zm19.5 25.4 13.4-29.4c.1-.3.5-.5.8-.5h.4c.2 0 .6.2.8.5l13.3 29.4c.3.6-.1 1.1-.8 1.1h-2.8c-.5 0-.8-.3-1-.6l-2.7-6h-14.3c-.9 2-1.8 4-2.6 6-.1.3-.5.6-1 .6h-2.8c-.6 0-.9-.6-.7-1.1m19.8-9.3-5.4-12h-.2l-5.3 12c-.1 0 10.9 0 10.9 0zm23.5-16.1h-7.1c-.5 0-.8-.4-.8-.8v-2.5c0-.4.3-.8.8-.8h18.8c.5 0 .8.4.8.8v2.4c0 .4-.3.8-.8.8h-7.1v25.6c0 .4-.4.8-.8.8h-2.9c-.4 0-.8-.4-.8-.8zm26-3.3c0-.4.3-.8.8-.8h17.5c.5 0 .8.4.8.8v2.4c0 .4-.3.8-.8.8h-13.8v8.9h11.7c.4 0 .8.4.8.8v2.4c0 .5-.4.8-.8.8h-11.7v9.4h13.8c.5 0 .8.4.8.8v2.4c0 .4-.3.8-.8.8h-17.5c-.5 0-.8-.4-.8-.8z"/><path d="m447.6 0c2.5 0 4.6 2.1 4.6 4.6s-2.1 4.6-4.6 4.6-4.6-2.1-4.6-4.6 2-4.6 4.6-4.6zm0 8.7c2.3 0 4.1-1.8 4.1-4.1s-1.8-4.1-4.1-4.1-4.1 1.8-4.1 4.1 1.9 4.1 4.1 4.1zm-1.6-6.3c0-.1.1-.2.2-.2h1.8c.8 0 1.6.4 1.6 1.5 0 .9-.7 1.3-1.2 1.4l.9 1.6c.1.1 0 .2-.1.2h-.3c-.1 0-.2-.1-.2-.1l-.9-1.7c-.1 0-.1 0-.2 0h-1.2v1.6c0 .1-.1.2-.2.2h-.2c-.1 0-.2-.1-.2-.2zm2 2.2c.6 0 1.1-.4 1.1-1 0-.8-.6-1-1.2-1h-1.3v2z"/></g></svg>