<svg enable-background="new 0 0 150 81" viewBox="0 0 150 81" xmlns="http://www.w3.org/2000/svg"><g fill="#f388b5"><path d="m68.7 13.3c0-.1 0-.1-.1-.1h-5.1c-.1 0-.1 0-.1.1v.3c0 .1 0 .1.1.1h2.2v5.7c0 .1 0 .1.1.1h.5c.1 0 .1 0 .1-.1v-5.7h2.2c.1 0 .1 0 .1-.1z"/><path d="m77.8 19v-2.5h3.1c.1 0 .1 0 .1-.1v-.4c0-.1 0-.1-.1-.1h-3.1v-2.2h3.7c.1 0 .1 0 .1-.1v-.3c0-.1 0-.1-.1-.1h-4.3c-.1 0-.1 0-.1.1v6.1c0 .1 0 .1.1.1h4.3c.1 0 .1 0 .1-.1v-.3c0-.1 0-.1-.1-.1zm-2.6.5c.1 0 .1 0 .1-.1v-6.1c0-.1 0-.1-.1-.1h-.4c-.1 0-.1 0-.1.1v2.6h-4.2v-2.6c0-.1 0-.1-.1-.1h-.4c-.1 0-.1 0-.1.1v6.1c0 .1 0 .1.1.1h.5c.1 0 .1 0 .1-.1v-2.9h4.1v2.9c0 .1 0 .1.1.1z"/><path d="m140.4 74.8v-4.4h4.8c.1 0 .2-.1.2-.2v-.6c0-.1-.1-.2-.2-.2h-4.8v-3.8h5.7c.1 0 .2-.1.2-.2v-.4c0-.1-.1-.2-.2-.2h-6.5c-.1 0-.2.1-.2.2v10.6c0 .1.1.2.2.2h6.6c.1 0 .2-.1.2-.2v-.6c0-.1-.1-.2-.2-.2zm-3.8-9.8c0-.1-.1-.2-.2-.2h-.7c-.1 0-.2.1-.2.2v5.9c0 2.7-1.3 4.1-3.3 4.1s-3.3-1.3-3.3-4.1v-5.9c0-.1-.1-.2-.2-.2h-.7c-.1 0-.2.1-.2.2v6.1c0 3.2 1.8 4.9 4.4 4.9 2.5 0 4.4-1.7 4.4-4.9zm-16 10c-2.3 0-4-1.9-4-4.8s1.7-4.7 4-4.7 4 1.8 4 4.6c0 1.7-.6 3-1.5 3.8l-.9-1.1c-.1-.1-.2-.1-.3 0l-.4.3c-.1.1-.1.2 0 .3l.9 1.1c-.5.3-1.1.5-1.8.5zm5.1-4.9c0-3.3-2.1-5.5-5-5.5-3 0-5.1 2.3-5.1 5.6s2.1 5.7 5 5.7c.9 0 1.7-.2 2.5-.7l.9 1.1c.1.1.2.1.3 0l.4-.3c.1-.1.1-.2 0-.3l-.9-1c1.1-1 1.9-2.6 1.9-4.6zm-13.3-5.1c0-.1-.1-.2-.2-.2h-.7c-.1 0-.2.1-.2.2v10.6c0 .1.1.2.2.2h.7c.1 0 .2-.1.2-.2zm-3.7 0c0-.1-.1-.2-.2-.2h-7.9c-.1 0-.2.1-.2.2v.6c0 .1.1.2.2.2h3.4v9.8c0 .1.1.2.2.2h.7c.1 0 .2-.1.2-.2v-9.8h3.4c.1 0 .2-.1.2-.2zm-9.9 0c0-.1-.1-.2-.2-.2h-.7c-.1 0-.2.1-.2.2v5.9c0 2.7-1.3 4.1-3.3 4.1s-3.3-1.3-3.3-4.1v-5.9c0-.1-.1-.2-.2-.2h-.7c-.1 0-.2.1-.2.2v6.1c0 3.2 1.8 4.9 4.4 4.9s4.4-1.7 4.4-4.9zm-16 .5c2.3 0 4 1.8 4 4.6 0 2.9-1.7 4.8-4 4.8s-4-1.9-4-4.8c-.1-2.8 1.6-4.6 4-4.6zm0-.9c-3 0-5.1 2.3-5.1 5.6s2.1 5.7 5 5.7 5.1-2.5 5.1-5.8-2.1-5.5-5-5.5zm-13.9 10.2v-4.3h3.5c1.6 0 2.6.9 2.6 2.2s-.9 2.2-2.4 2.2h-3.7zm0-9.1h3.1c1.4 0 2.3.8 2.3 2s-.8 1.9-2.1 1.9h-3.2zm5.2 4.2c.7-.5 1.2-1.4 1.2-2.3 0-1.6-1.2-2.8-3.2-2.8h-4.1c-.1 0-.2.1-.2.2v10.6c0 .1.1.2.2.2h4.6c2.1 0 3.4-1.3 3.4-3.2-.1-1.2-.7-2.2-1.9-2.7z"/><path clip-rule="evenodd" d="m5.9 70.1h57.8v.2h-57.8z" fill-rule="evenodd"/><path d="m5.7 69.9h58.2v.7h-58.2z"/><path clip-rule="evenodd" d="m104.2 16.6h41.7v.2h-41.7z" fill-rule="evenodd"/><path d="m104 16.4h42.2v.7h-42.2z"/><path d="m27.7 15.6c4.4-5.4 12.3-1.6 12.3.9 0 0-5.5 0-8.1 24.3 9.9-.8 16.1-7 17.4-15.1 1.6-9.9-5.1-14-14-14-15.2 0-25.8 9.7-27.6 20-1.4 8.4 6.2 9.1 9.6 7.6 0 0 1.7 10.3-5.3 10.2-6 0-13.9-5.6-11-16.6 3.6-13.8 18.8-25 36.9-25.5 12.2-.3 23.6 4 21.9 16.3s-15.2 19.5-28.3 20.8c-1.3 13.9-9.4 18-13.3 14.6 0 0 .9-.9 1.5-3 5.1-15.4 3.5-35.2 8-40.5"/><path d="m61.5 54.8c1.8.5 3.5-4.3 5.5-12.3.1-1.4.3-2.9.5-4.4 1.4-9.1 9.3-10 12.9-6.3 0 0-2.7 5.4-3.9 12.3-1.1 5.6-1.9 11.2.1 11.4s4.5-3.6 6.1-8.1h.1c1.1-.4 2.1.4 1.4 2.4-2.8 6.9-7.4 10.7-11.5 9.1-2.9-1.1-5.2-4.4-5.8-10.6-1.2 4.1-3.6 11.5-8.6 10.9-5.2-.6-7.5-7.1-5.3-15.6 2.4-9.5 1.4-12 1.4-12 8.3-2.8 11.4 1.7 8.8 11.1-2.1 7.3-3.5 11.6-1.7 12.1"/><path d="m91.5 37.6c-1.1 6.1-2.7 17.1-.9 17.7 1.9.8 4.6-3.4 6.2-7.9h.1c1.1-.4 2.1.4 1.4 2.4-2.4 6-7.4 10.9-11.6 9.1-4-1.8-5.9-11.9-5-20.3 1-9.3 3.2-19.7 5.8-23.5 4.1-5.6 11.8.4 11.8.4s-4.9 5.5-7.8 22.1"/><path d="m99.5 37.4c-1.8-1.7-3.3-3.9-2.8-6.3.5-2.5 6.4-6.7 7.7-5.3 1 1 1.3 4.5.9 7 0 .1-.1.1-.1.1l.8.4c5.2 2.8 10.4 6.5 11.3 12.3 2.1-.9 3.8-2.1 4.7-4.6h.1c1.1-.4 2.1.4 1.3 2.4-1.2 2.9-3.4 4.6-6.1 5.7 0 .1-.1.4-.1.5-1.8 10.1-12.8 11.4-17.3 8.5-3.3-2.2-1.4-6.8 3.4-8.9 1.1-.4 2.1-.8 3.1-1.1.4-3.8-.9-6.4-3.4-8.1-1.6 3.9-3.7 7.4-5.6 11.1-.9 1.9-2.3 1.7-2.6.6l-.1-.1c2-3.4 4-9.7 4.8-14.2m6.4 13.9c-1.1.2-2 .4-2.8.7-2.2.8-2.6 3.3-1.2 3.9 1.5.8 2.8-.3 4-4.6"/><path d="m130.3 50.3c.7 2.8 2.1 5.2 4.2 5.6 5.9 1.2 11.5-3.6 13.1-8.4h.1c1.1-.4 2.1.4 1.3 2.4-2 5.1-9.4 11.2-18.5 9.6-4.8-.9-12.3-7.1-10.6-16 1.8-8.9 9.9-14.9 17.9-13.5 11.9 2.3 9.6 11.9-7.1 20-.1.2-.3.2-.4.3m-.4-2.9c6.5-5.3 8.3-14.6 6.1-15.3-2.6-.7-4.6 6.1-5.8 10.4-.3 1.6-.4 3.2-.3 4.9"/></g></svg>